<svg width="85" height="118" viewBox="0 0 85 118" fill="none" xmlns="http://www.w3.org/2000/svg">
<rect width="85" height="118" fill="#F7F8FA"/>
<path fill-rule="evenodd" clip-rule="evenodd" d="M34.4 46.05C33.6839 46.05 32.9972 46.3345 32.4908 46.8408C31.9845 47.3472 31.7 48.0339 31.7 48.75V62.25C31.7 62.9661 31.9845 63.6528 32.4908 64.1592C32.9972 64.6655 33.6839 64.95 34.4 64.95H50.6C51.3161 64.95 52.0028 64.6655 52.5092 64.1592C53.0155 63.6528 53.3 62.9661 53.3 62.25V48.75C53.3 48.0339 53.0155 47.3472 52.5092 46.8408C52.0028 46.3345 51.3161 46.05 50.6 46.05H34.4ZM50.6 62.25H34.4L39.8 51.45L43.85 59.55L46.55 54.15L50.6 62.25Z" fill="#D9D9D9"/>
<rect x="0.5" y="0.5" width="84" height="117" stroke="black" stroke-opacity="0.06"/>
</svg>
