<svg width="240" height="64" viewBox="0 0 240 64" fill="none" xmlns="http://www.w3.org/2000/svg">
<path d="M36.1932 54.5518C35.8057 55.2044 34.861 55.2044 34.4735 54.5518L11.1014 15.1882C10.6666 14.4559 11.2876 13.5501 12.1273 13.6915L35.1673 17.5719C35.2772 17.5904 35.3895 17.5904 35.4995 17.5719L58.5394 13.6915C59.3792 13.5501 60.0001 14.456 59.5654 15.1882L36.1932 54.5518Z" fill="url(#paint0_linear_1929_12862)"/>
<mask id="mask0_1929_12862" style="mask-type:alpha" maskUnits="userSpaceOnUse" x="10" y="13" width="50" height="43">
<path d="M36.1932 54.5517C35.8057 55.2043 34.861 55.2043 34.4735 54.5517L11.1014 15.1881C10.6666 14.4559 11.2876 13.55 12.1273 13.6914L35.1673 17.5719C35.2772 17.5904 35.3895 17.5904 35.4995 17.5719L58.5394 13.6915C59.3792 13.55 60.0001 14.4559 59.5654 15.1881L36.1932 54.5517Z" fill="#D9D9D9"/>
</mask>
<g mask="url(#mask0_1929_12862)">
<path d="M11.1014 15.1881L35.3334 55.9999L35.3334 18.4455C35.3334 17.9573 34.9809 17.5405 34.4995 17.4594L12.1273 13.6914C11.2876 13.55 10.6666 14.4559 11.1014 15.1881Z" fill="url(#paint1_linear_1929_12862)"/>
</g>
<path d="M47.3336 8L32.6669 13.3333L26.0002 28L32.6669 24.553L28.6669 36L34.0003 33.3334L31.3336 45.3334L46.0003 17.3333L40.6669 20L47.3336 8Z" fill="url(#paint2_linear_1929_12862)"/>
<path d="M76.6667 48.1724H82.8457L85.5919 39.5977H97.8126L100.582 48.1724H106.761L95.0435 15H88.3839L76.6667 48.1724ZM91.5192 21.1609H91.9082L96.3479 35.023H87.0795L91.5192 21.1609Z" fill="white"/>
<path d="M125.206 49C133.605 49 138.777 44.0575 138.777 36.7471V15H132.873V36.2644C132.873 40.8391 130.126 43.8736 125.229 43.8736C120.309 43.8736 117.54 40.8391 117.54 36.2644V15H111.635V36.7471C111.635 44.0575 116.853 49 125.206 49Z" fill="white"/>
<path d="M144.841 48.1724H151.295L159.099 35.9655H159.305L167.109 48.1724H173.928L163.058 31.6207V31.5517L174.112 15H167.475L159.831 27.4828H159.579L151.913 15H144.933L155.62 31.3908V31.4598L144.841 48.1724Z" fill="white"/>
<path d="M180.222 48.1724H186.126V15H180.222V48.1724Z" fill="white"/>
<path d="M194.273 48.1724H199.972V25.3218H200.338L216.563 48.1724H221.667V15H215.991V37.8506H215.625L199.4 15H194.273V48.1724Z" fill="white"/>
<defs>
<linearGradient id="paint0_linear_1929_12862" x1="35.3334" y1="55.9999" x2="35.3334" y2="13.3332" gradientUnits="userSpaceOnUse">
<stop stop-color="#3FD1FF"/>
<stop offset="1" stop-color="#6CFFF6"/>
</linearGradient>
<linearGradient id="paint1_linear_1929_12862" x1="39.3334" y1="46.6665" x2="14" y2="22.6665" gradientUnits="userSpaceOnUse">
<stop stop-color="#4CF8D9"/>
<stop offset="1" stop-color="#3FD1FF"/>
</linearGradient>
<linearGradient id="paint2_linear_1929_12862" x1="36.6669" y1="8" x2="36.6669" y2="45.3334" gradientUnits="userSpaceOnUse">
<stop stop-color="#FFF734"/>
<stop offset="1" stop-color="#DBFA1E"/>
</linearGradient>
</defs>
</svg>
