<svg width="39" height="91" viewBox="0 0 39 91" fill="none" xmlns="http://www.w3.org/2000/svg">
<path d="M10.5817 0.0230874C8.29655 1.10276 6.88299 1.3166 6.44651 2.07495C4.80975 4.89166 2.9556 7.70786 2.07902 10.8517C-0.548315 19.1984 -0.241004 27.6601 1.4794 36.125C4.38225 50.5586 10.8758 63.373 19.0013 75.5402C19.868 76.8438 20.626 78.1472 21.4925 79.5593C21.4922 79.6678 21.383 79.8845 21.1649 80.2094C18.7749 79.5533 16.2763 78.8969 13.8861 78.3492C12.5822 78.1294 11.0604 78.126 9.75506 78.557C8.99368 78.7722 7.90406 79.963 7.90237 80.7224C7.9002 81.6986 8.65844 82.8935 9.30871 83.7628C9.851 84.3063 10.8291 84.417 11.6982 84.6359C18.2165 86.2775 24.7344 88.136 31.3617 89.6694C37.0112 90.9836 38.8632 89.1436 38.5493 83.6107C38.236 77.8609 38.1401 72.1115 37.9352 66.4704C37.8304 64.7345 37.5084 62.8898 37.2953 60.9367C32.7254 62.9876 32.7253 62.9876 31.0558 80.5568C24.2246 72.9484 19.6776 64.6942 15.4571 56.2238C11.2366 47.7534 8.43014 38.8523 6.92931 29.4116C5.42919 19.6456 7.29754 10.4294 10.5817 0.0230874Z" fill="#136C72"/>
</svg>
