<svg width="24" height="24" viewBox="0 0 24 24" fill="none" xmlns="http://www.w3.org/2000/svg">
<rect width="24" height="24" rx="4" fill="#AAAAAA"/>
<path fill-rule="evenodd" clip-rule="evenodd" d="M11.1655 7.89459C11.3233 7.73719 11.5372 7.64865 11.761 7.64865H16.7414V5H11.4902C10.7361 5 10.0124 5.29892 9.4791 5.83092L7.33297 7.97178C6.79966 8.50378 6.5 9.22573 6.5 9.97795V16.9189C6.5 18.0684 7.43386 19 8.58621 19H17.5V13.4484C17.5 12.8968 17.28 12.367 16.8893 11.9773L14.835 9.92876L12.9581 11.801C12.9581 11.801 14.087 12.9278 14.5983 13.4378C14.7561 13.5952 14.8448 13.8086 14.8448 14.0319C14.8448 14.7546 14.8448 16.3514 14.8448 16.3514C14.8448 16.3514 10.5821 16.3514 9.43586 16.3514C9.2811 16.3514 9.15517 16.2257 9.15517 16.0714C9.15517 15.0316 9.15517 11.3931 9.15517 10.2481C9.15517 10.0249 9.24393 9.81146 9.40172 9.65405C9.83565 9.22119 10.7316 8.32746 11.1655 7.89459Z" fill="#767676"/>
</svg>
