<svg width="20" height="20" viewBox="0 0 20 20" fill="none" xmlns="http://www.w3.org/2000/svg">
<path d="M2.5 16.6667V7.91666C2.5 7.45641 2.8731 7.08333 3.33333 7.08333H6.25C6.71025 7.08333 7.08333 7.45641 7.08333 7.91666V12.0833C7.08333 12.5436 7.45642 12.9167 7.91667 12.9167H12.0833C12.5436 12.9167 12.9167 13.2897 12.9167 13.75V16.6667C12.9167 17.1269 12.5436 17.5 12.0833 17.5H3.33333C2.8731 17.5 2.5 17.1269 2.5 16.6667Z" stroke="#13C2C2" stroke-width="1.5" stroke-linecap="round" stroke-linejoin="round"/>
<path d="M17.5 3.33333V12.0833C17.5 12.5436 17.127 12.9167 16.6667 12.9167H13.75C13.2898 12.9167 12.9167 12.5436 12.9167 12.0833V7.91667C12.9167 7.45642 12.5436 7.08333 12.0834 7.08333H7.91671C7.45646 7.08333 7.08337 6.71025 7.08337 6.25V3.33333C7.08337 2.8731 7.45646 2.5 7.91671 2.5H16.6667C17.127 2.5 17.5 2.8731 17.5 3.33333Z" stroke="#13C2C2" stroke-width="1.5" stroke-linecap="round" stroke-linejoin="round"/>
</svg>
