<svg width="135" height="25" viewBox="0 0 135 25" fill="none" xmlns="http://www.w3.org/2000/svg">
<path d="M0 0H135L130.412 0.917675C128.617 1.27663 127.162 2.58756 126.618 4.33525L122.25 18.3765C121.209 21.7212 118.113 24 114.611 24H20.4522C16.9194 24 13.8048 21.6827 12.7896 18.2988L8.61921 4.39736C8.08483 2.61609 6.606 1.27858 4.78019 0.925197L0 0Z" fill="#136C72"/>
<path d="M60.834 8.64097C60.9959 8.80378 61.0869 9.02529 61.0869 9.25541V19.8895H63.8107V8.65272C63.8107 8.08133 63.585 7.5342 63.1843 7.13031L61.0768 5.01147L59.1515 6.94872L60.834 8.64097Z" fill="white"/>
<path d="M51.7861 8.33337C51.948 8.17056 52.1674 8.07898 52.397 8.07898H57.5061V5.33944H52.1192C51.3456 5.33944 50.6032 5.64862 50.0561 6.19887L47.8545 8.4132C47.3074 8.96346 47 9.71018 47 10.4882V17.6674C47 18.8563 47.958 19.8199 49.1401 19.8199H58.2843V14.0778C58.2843 13.5072 58.0586 12.9593 57.6578 12.5562L55.5504 10.4373L53.6251 12.3738C53.6251 12.3738 54.7831 13.5393 55.3076 14.0668C55.4695 14.2296 55.5605 14.4504 55.5605 14.6813V17.0803H50.0117C49.853 17.0803 49.7238 16.9504 49.7238 16.7907V10.7676C49.7238 10.5367 49.8149 10.316 49.9767 10.1532L51.7861 8.33337Z" fill="white"/>
<path d="M72.7161 8.24883C72.608 8.14003 72.4616 8.07898 72.3091 8.07898H66.1074V5.33944H72.7893C73.3566 5.33944 73.9014 5.56643 74.3022 5.96953L76.1816 7.85982C76.5824 8.26292 76.8081 8.81083 76.8081 9.38144V11.2811C76.8081 12.1421 76.2975 12.9201 75.5107 13.2591C75.5107 13.2591 69.881 15.6863 68.811 16.1473C68.7051 16.1927 68.6366 16.2976 68.6366 16.4134V17.0803H77.0026V19.8199H65.9128V15.835C65.9128 14.974 66.4234 14.196 67.2102 13.8571L74.0843 10.8937V9.86438C74.0843 9.71096 74.0236 9.56381 73.9154 9.45501L72.7161 8.24883Z" fill="white"/>
<path d="M85.3021 8.07898C85.4547 8.07898 85.601 8.14003 85.7091 8.24883L86.1302 8.67228C86.2383 8.78108 86.299 8.92824 86.299 9.08165V11.7969H89.0228V8.59871C89.0228 8.0281 88.7971 7.48019 88.3964 7.07709L87.2952 5.96953C86.8936 5.56643 86.3496 5.33944 85.7823 5.33944H78.7276V8.07898H85.3021Z" fill="white"/>
<path d="M86.2981 16.3193V16.2801L82.8062 12.7673L84.7316 10.8308L88.3955 14.5151C88.7963 14.9182 89.0219 15.4661 89.0219 16.0367V16.5627C89.0219 17.1333 88.7963 17.6812 88.3955 18.0843L87.2943 19.1919C86.8935 19.595 86.3487 19.822 85.7814 19.822H78.5158V17.0824H85.3012C85.4538 17.0824 85.6001 17.0214 85.7082 16.9126L86.2981 16.3193Z" fill="white"/>
</svg>
