<svg width="20" height="20" viewBox="0 0 20 20" fill="none" xmlns="http://www.w3.org/2000/svg">
<path d="M12.5 5.41666H7.49996C4.2783 5.41666 1.66663 8.02833 1.66663 11.25C1.66663 14.4717 4.2783 17.0833 7.49996 17.0833H12.5C15.7216 17.0833 18.3333 14.4717 18.3333 11.25C18.3333 8.02833 15.7216 5.41666 12.5 5.41666Z" stroke="#13C2C2" stroke-width="1.66667" stroke-linejoin="round"/>
<path d="M12.9167 10C13.3769 10 13.75 9.62691 13.75 9.16668C13.75 8.70644 13.3769 8.33334 12.9167 8.33334C12.4565 8.33334 12.0834 8.70644 12.0834 9.16668C12.0834 9.62691 12.4565 10 12.9167 10Z" fill="#13C2C2"/>
<path d="M14.5833 12.0833C15.0436 12.0833 15.4167 11.7102 15.4167 11.25C15.4167 10.7898 15.0436 10.4167 14.5833 10.4167C14.1231 10.4167 13.75 10.7898 13.75 11.25C13.75 11.7102 14.1231 12.0833 14.5833 12.0833Z" fill="#13C2C2"/>
<path d="M5 11.25H9.16667" stroke="#13C2C2" stroke-width="1.66667" stroke-linecap="round" stroke-linejoin="round"/>
<path d="M10 2.91666V5.41666" stroke="#13C2C2" stroke-width="1.66667" stroke-linecap="round" stroke-linejoin="round"/>
<path d="M7.08337 9.16666V13.3333" stroke="#13C2C2" stroke-width="1.66667" stroke-linecap="round" stroke-linejoin="round"/>
</svg>
