<svg width="14" height="14" viewBox="0 0 14 14" fill="none" xmlns="http://www.w3.org/2000/svg">
<g clip-path="url(#clip0_1354_16209)">
<path d="M12.8333 1.16663H9.04167L7.875 4.17082C9.17624 4.43496 10.2678 5.27662 10.8704 6.41663L12.8333 1.16663Z" stroke="#626F86" stroke-width="1.5" stroke-linecap="round" stroke-linejoin="round"/>
<path d="M4.95841 1.16663H1.16675L3.12969 6.41663C3.73231 5.27662 4.82384 4.43496 6.12508 4.17082L4.95841 1.16663Z" stroke="#626F86" stroke-width="1.5" stroke-linecap="round" stroke-linejoin="round"/>
<path d="M11.375 8.45837C11.375 10.8746 9.41625 12.8334 7 12.8334C4.58375 12.8334 2.625 10.8746 2.625 8.45837C2.625 7.72098 2.80743 7.0262 3.12961 6.41671C3.73222 5.2767 4.82376 4.43504 6.125 4.1709C6.40771 4.1135 6.70034 4.08337 7 4.08337C7.29966 4.08337 7.59229 4.1135 7.875 4.1709C9.17624 4.43504 10.2678 5.2767 10.8704 6.41671C11.1926 7.0262 11.375 7.72098 11.375 8.45837Z" stroke="#626F86" stroke-width="1.5" stroke-linecap="round" stroke-linejoin="round"/>
<path d="M6.99992 10.2083V6.41663L6.12492 6.70829M6.99992 10.2083H8.16658M6.99992 10.2083H5.83325" stroke="#626F86" stroke-width="1.5" stroke-linecap="round" stroke-linejoin="round"/>
</g>
<defs>
<clipPath id="clip0_1354_16209">
<rect width="14" height="14" fill="white"/>
</clipPath>
</defs>
</svg>
