<svg width="20" height="20" viewBox="0 0 20 20" fill="none" xmlns="http://www.w3.org/2000/svg">
<path d="M11.7857 15.4167H16.5477M11.7857 15.4167L10.8334 17.5M11.7857 15.4167L14.1667 10L16.5477 15.4167M16.5477 15.4167L17.5 17.5" stroke="#13C2C2" stroke-width="1.66667" stroke-linecap="round" stroke-linejoin="round"/>
<path d="M6.66663 2.5L7.08329 3.75L6.66663 2.5Z" fill="#13C2C2"/>
<path d="M6.66663 2.5L7.08329 3.75" stroke="#13C2C2" stroke-width="1.66667" stroke-linecap="round" stroke-linejoin="round"/>
<path d="M2.5 4.58334H11.6667H2.5Z" fill="#13C2C2"/>
<path d="M2.5 4.58334H11.6667" stroke="#13C2C2" stroke-width="1.66667" stroke-linecap="round" stroke-linejoin="round"/>
<path d="M4.16663 6.66666C4.16663 6.66666 4.91225 9.27536 6.77629 10.7246C8.64029 12.1739 11.6666 13.3333 11.6666 13.3333" stroke="#13C2C2" stroke-width="1.66667" stroke-linecap="round" stroke-linejoin="round"/>
<path d="M10 4.58334C10 4.58334 9.25437 8.00726 7.39033 9.90943C5.52633 11.8116 2.5 13.3333 2.5 13.3333" stroke="#13C2C2" stroke-width="1.66667" stroke-linecap="round" stroke-linejoin="round"/>
</svg>
