<svg width="14" height="14" viewBox="0 0 14 14" fill="none" xmlns="http://www.w3.org/2000/svg">
<g clip-path="url(#clip0_1354_16252)">
<path d="M4.08333 9.91667C4.88875 9.91667 5.54167 9.26375 5.54167 8.45833C5.54167 7.65292 4.88875 7 4.08333 7C3.27792 7 2.625 7.65292 2.625 8.45833C2.625 9.26375 3.27792 9.91667 4.08333 9.91667Z" stroke="#626F86" stroke-width="1.5" stroke-linecap="round" stroke-linejoin="round"/>
<path d="M9.91658 9.91667C10.722 9.91667 11.3749 9.26375 11.3749 8.45833C11.3749 7.65292 10.722 7 9.91658 7C9.11117 7 8.45825 7.65292 8.45825 8.45833C8.45825 9.26375 9.11117 9.91667 9.91658 9.91667Z" stroke="#626F86" stroke-width="1.5" stroke-linecap="round" stroke-linejoin="round"/>
<path d="M7.00008 4.08335C7.8055 4.08335 8.45841 3.43044 8.45841 2.62502C8.45841 1.81961 7.8055 1.16669 7.00008 1.16669C6.19467 1.16669 5.54175 1.81961 5.54175 2.62502C5.54175 3.43044 6.19467 4.08335 7.00008 4.08335Z" stroke="#626F86" stroke-width="1.5" stroke-linecap="round" stroke-linejoin="round"/>
<path d="M7.00008 12.8334C7.00008 11.2225 5.69423 9.91669 4.08341 9.91669C2.47258 9.91669 1.16675 11.2225 1.16675 12.8334" stroke="#626F86" stroke-width="1.5" stroke-linecap="round" stroke-linejoin="round"/>
<path d="M12.8333 12.8334C12.8333 11.2225 11.5275 9.91669 9.91667 9.91669C8.30585 9.91669 7 11.2225 7 12.8334" stroke="#626F86" stroke-width="1.5" stroke-linecap="round" stroke-linejoin="round"/>
<path d="M9.91659 6.99998C9.91659 5.38916 8.61074 4.08331 6.99992 4.08331C5.3891 4.08331 4.08325 5.38916 4.08325 6.99998" stroke="#626F86" stroke-width="1.5" stroke-linecap="round" stroke-linejoin="round"/>
</g>
<defs>
<clipPath id="clip0_1354_16252">
<rect width="14" height="14" fill="white"/>
</clipPath>
</defs>
</svg>
